<svg width="24" height="25" viewBox="0 0 24 25" fill="none" xmlns="http://www.w3.org/2000/svg">
<path fill-rule="evenodd" clip-rule="evenodd" d="M3 5.1333C3 4.0283 3.895 3.1333 5 3.1333H19C20.105 3.1333 21 4.0283 21 5.1333V19.1333C21 20.2383 20.105 21.1333 19 21.1333H15.414V14.1683H17.779L18.13 11.4433H15.43V9.7083C15.43 8.9203 15.65 8.3863 16.78 8.3863H18.208V5.9563C17.513 5.8853 16.815 5.8493 16.116 5.8513C14.042 5.8513 12.621 7.1183 12.621 9.4423V11.4473H10.278V14.1723H12.621V21.1333H5C3.895 21.1333 3 20.2383 3 19.1333V5.1333Z" fill="#232946"/>
</svg>
