<svg width="24" height="25" viewBox="0 0 24 25" fill="none" xmlns="http://www.w3.org/2000/svg">
<path fill-rule="evenodd" clip-rule="evenodd" d="M3 8.1333C3 5.3723 5.239 3.1333 8 3.1333H16C18.761 3.1333 21 5.3723 21 8.1333V16.1333C21 18.8943 18.761 21.1333 16 21.1333H8C5.239 21.1333 3 18.8943 3 16.1333V8.1333ZM19 6.1333C19 5.5813 18.552 5.1333 18 5.1333C17.448 5.1333 17 5.5813 17 6.1333C17 6.6853 17.448 7.1333 18 7.1333C18.552 7.1333 19 6.6853 19 6.1333ZM17 12.1333C17 9.3723 14.761 7.1333 12 7.1333C9.239 7.1333 7 9.3723 7 12.1333C7 14.8943 9.239 17.1333 12 17.1333C14.761 17.1333 17 14.8943 17 12.1333ZM9.87868 10.012C10.4413 9.44937 11.2044 9.1333 12 9.1333C12.7956 9.1333 13.5587 9.44937 14.1213 10.012C14.6839 10.5746 15 11.3377 15 12.1333C15 12.929 14.6839 13.692 14.1213 14.2546C13.5587 14.8172 12.7956 15.1333 12 15.1333C11.2044 15.1333 10.4413 14.8172 9.87868 14.2546C9.31607 13.692 9 12.929 9 12.1333C9 11.3377 9.31607 10.5746 9.87868 10.012Z" fill="#232946"/>
</svg>
