<svg width="24" height="25" viewBox="0 0 24 25" fill="none" xmlns="http://www.w3.org/2000/svg">
<path fill-rule="evenodd" clip-rule="evenodd" d="M3 7.1333C3 4.9243 4.791 3.1333 7 3.1333H17C19.209 3.1333 21 4.9243 21 7.1333V17.1333C21 19.3423 19.209 21.1333 17 21.1333H7C4.791 21.1333 3 19.3423 3 17.1333V7.1333ZM10.021 17.0193C14.564 17.0193 17.05 13.2473 17.05 9.9903V9.6473C17.479 9.3043 17.907 8.8763 18.252 8.3603C17.738 8.6183 17.309 8.7033 16.795 8.7893C17.309 8.4473 17.738 8.0183 17.909 7.4183C17.48 7.6753 16.966 7.9323 16.366 8.0183C15.937 7.5043 15.252 7.2473 14.566 7.2473C13.194 7.2473 12.08 8.3623 12.08 9.7333C12.08 9.87484 12.1061 9.9906 12.1295 10.0946C12.1486 10.1795 12.166 10.2565 12.166 10.3333C10.109 10.2483 8.309 9.2193 7.109 7.7623C6.852 8.1053 6.766 8.5333 6.766 8.9623C6.766 9.8193 7.194 10.5053 7.88 11.1053C7.452 11.0193 7.109 10.9333 6.766 10.7623C6.766 11.9623 7.623 12.9053 8.737 13.1623C8.48 13.2483 8.308 13.2483 8.05101 13.2483H8.051C8.01532 13.2483 7.96483 13.2335 7.90575 13.2162C7.82244 13.1917 7.72205 13.1623 7.622 13.1623C7.965 14.1053 8.822 14.8763 9.936 14.8763C9.079 15.4763 7.964 15.9053 6.85 15.9053H6.25C7.364 16.5903 8.65 17.0193 10.021 17.0193Z" fill="#232946"/>
</svg>
